#!OML:ASF G:\JayActor3\Patient Classification 1\Patient 1\Session 5\male.ASF
:FULLY-SPECIFIED
:DEGREES
630
root 6.79591 16.2084 -5.34317 -52.9707 -88.2488 66.1252
lowerback 33.4709 -1.9259 2.06824
upperback 9.83885 -2.98896 -1.99587
thorax -6.44109 -1.79685 -2.10209
lowerneck 1.1772 1.57269 3.36473
upperneck -23.2773 1.81237 0.0923906
head -7.28309 0.238221 -0.615433
rclavicle -2.18663e-014 -1.03368e-014
rhumerus -29.508 1.1163 -89.8387
rradius 49.2155
rwrist -2.77459
rhand -21.2933 -12.3371
rfingers 7.12502
rthumb 5.09112 -42.256
lclavicle -2.18663e-014 -1.03368e-014
lhumerus -25.5249 -0.0228422 81.5945
lradius 36.8651
lwrist 21.7268
lhand -20.4892 15.5141
lfingers 7.12502
lthumb 5.86753 45.4129
rfemur -63.2004 3.61339 17.4847
rtibia 52.7106
rfoot 15.244 -9.70527
rtoes 4.47633
lfemur -38.4508 11.5699 -24.3189
ltibia 70.304
lfoot 7.39467 -8.24871
ltoes -23.8484
631
root 6.95946 16.2102 -5.33213 -52.0087 -88.1794 65.283
lowerback 33.5686 -1.91388 2.02435
upperback 9.83357 -2.98693 -1.99279
thorax -6.48122 -1.79627 -2.07311
lowerneck 1.18966 1.56914 3.36715
upperneck -23.3418 1.8029 0.0719483
head -7.30646 0.232696 -0.62211
rclavicle 8.34896e-015 2.34566e-014
rhumerus -29.4564 1.19987 -89.8802
rradius 49.3386
rwrist -2.76514
rhand -21.2815 -12.3525
rfingers 7.12502
rthumb 5.10254 -42.2711
lclavicle 8.34896e-015 2.34566e-014
lhumerus -25.4107 -0.0914811 81.6071
lradius 36.964
lwrist 21.7071
lhand -20.528 15.5397
lfingers 7.12502
lthumb 5.8301 45.4395
rfemur -63.2959 3.80806 17.0637
rtibia 51.5504
rfoot 15.8768 -10.4499
rtoes 5.51873
lfemur -38.6647 11.6236 -24.5994
ltibia 69.683
lfoot 6.41155 -8.21121
ltoes -24.3059
632
root 7.12429 16.2143 -5.32103 -51.3507 -88.1216 64.7486
lowerback 33.6774 -1.89272 1.96928
upperback 9.82697 -2.97688 -1.98428
thorax -6.52566 -1.79218 -2.035
lowerneck 1.21363 1.56601 3.37443
upperneck -23.4195 1.79537 0.0544654
head -7.33622 0.226956 -0.628878
rclavicle 3.97569e-015 3.97569e-015
rhumerus -29.387 1.29077 -89.9095
rradius 49.4416
rwrist -2.76114
rhand -21.2548 -12.3591
rfingers 7.12502
rthumb 5.12836 -42.277
lclavicle 3.97569e-015 3.97569e-015
lhumerus -25.3072 -0.170473 81.6302
lradius 37.0814
lwrist 21.6833
lhand -20.5694 15.5706
lfingers 7.12502
lthumb 5.79005 45.4715
rfemur -63.3777 4.02366 16.6136
rtibia 50.3333
rfoot 16.5839 -11.308
rtoes 6.6887
lfemur -38.9773 11.6722 -24.8654
ltibia 69.1736
lfoot 5.55546 -8.23314
ltoes -24.6594
633
root 7.28985 16.2205 -5.30963 -50.8695 -88.0752 64.3966
lowerback 33.7875 -1.8656 1.90943
upperback 9.82231 -2.96118 -1.97283
thorax -6.5677 -1.78559 -1.99332
lowerneck 1.24594 1.56316 3.38845
upperneck -23.5093 1.79031 0.0436909
head -7.37151 0.220732 -0.634827
rclavicle -1.55052e-014 -2.70347e-014
rhumerus -29.2928 1.38199 -89.9294
rradius 49.5194
rwrist -2.76641
rhand -21.2117 -12.3776
rfingers 7.12502
rthumb 5.16994 -42.2945
lclavicle -1.55052e-014 -2.70347e-014
lhumerus -25.2049 -0.260247 81.6601
lradius 37.2041
lwrist 21.6626
lhand -20.6176 15.5894
lfingers 7.12502
lthumb 5.74358 45.4915
rfemur -63.4481 4.2438 16.1435
rtibia 49.0678
rfoot 17.3594 -12.2676
rtoes 7.95547
lfemur -39.3884 11.7256 -25.1223
ltibia 68.7678
lfoot 4.85212 -8.28267
ltoes -24.8392
634
root 7.45584 16.2281 -5.29831 -50.7265 -88.0355 64.3905
lowerback 33.8992 -1.82772 1.83948
upperback 9.81493 -2.93549 -1.96206
thorax -6.61247 -1.77428 -1.9505
lowerneck 1.28482 1.55514 3.40613
upperneck -23.6023 1.78221 0.0501977
head -7.40937 0.211075 -0.635586
rclavicle -1.15295e-014 -1.98785e-015
rhumerus -29.1848 1.44609 -89.9405
rradius 49.5766
rwrist -2.77397
rhand -21.1657 -12.3986
rfingers 7.12502
rthumb 5.21435 -42.3145
lclavicle -1.15295e-014 -1.98785e-015
lhumerus -25.1051 -0.370734 81.6943
lradius 37.3273
lwrist 21.6521
lhand -20.659 15.602
lfingers 7.12502
lthumb 5.70357 45.5052
rfemur -63.5175 4.46375 15.6526
rtibia 47.77
rfoot 18.1909 -13.3414
rtoes 9.33005
lfemur -39.8986 11.7986 -25.3866
ltibia 68.4528
lfoot 4.31483 -8.33206
ltoes -24.8469
635
root 7.6219 16.2361 -5.287 -51.0206 -87.9974 64.8245
lowerback 34.0128 -1.77961 1.75721
upperback 9.80734 -2.90183 -1.95498
thorax -6.65755 -1.75928 -1.90788
lowerneck 1.32232 1.54204 3.42483
upperneck -23.6908 1.77017 0.0716395
head -7.44584 0.198223 -0.631318
rclavicle -2.42517e-014 -5.56597e-015
rhumerus -29.0663 1.48532 -89.946
rradius 49.6158
rwrist -2.78822
rhand -21.1386 -12.4166
rfingers 7.12502
rthumb 5.24057 -42.3318
lclavicle -2.42517e-014 -5.56597e-015
lhumerus -24.9998 -0.501876 81.7296
lradius 37.4448
lwrist 21.6577
lhand -20.6844 15.6188
lfingers 7.12502
lthumb 5.67906 45.5227
rfemur -63.589 4.66604 15.1482
rtibia 46.458
rfoot 19.0835 -14.4827
rtoes 10.7103
lfemur -40.4925 11.9011 -25.6725
ltibia 68.2134
lfoot 3.9313 -8.36063
ltoes -24.6981
636
root 7.7872 16.2441 -5.27531 -51.5812 -87.9647 65.5197
lowerback 34.131 -1.72579 1.67967
upperback 9.79998 -2.86048 -1.9524
thorax -6.70415 -1.74063 -1.87518
lowerneck 1.35796 1.52254 3.44222
upperneck -23.7705 1.75174 0.105036
head -7.47937 0.181683 -0.62243
rclavicle 1.82882e-014 -1.15295e-014
rhumerus -28.9498 1.49117 -89.9454
rradius 49.6465
rwrist -2.80784
rhand -21.1349 -12.4316
rfingers 7.12502
rthumb 5.24412 -42.3467
lclavicle 1.82882e-014 -1.15295e-014
lhumerus -24.8893 -0.644923 81.7644
lradius 37.5515
lwrist 21.6696
lhand -20.6918 15.6342
lfingers 7.12502
lthumb 5.67191 45.5383
rfemur -63.6579 4.8323 14.6536
rtibia 45.1557
rfoot 20.0251 -15.663
rtoes 12.0642
lfemur -41.1421 12.0328 -25.9775
ltibia 68.0353
lfoot 3.64972 -8.36068
ltoes -24.4721
637
root 7.95132 16.2512 -5.26341 -52.5021 -87.9411 66.569
lowerback 34.2492 -1.66383 1.60625
upperback 9.79211 -2.80841 -1.95272
thorax -6.75109 -1.71691 -1.85166
lowerneck 1.39268 1.49655 3.4586
upperneck -23.8395 1.72508 0.141116
head -7.5094 0.161499 -0.611897
rclavicle -4.05521e-014 -1.86858e-014
rhumerus -28.8469 1.46353 -89.9379
rradius 49.6784
rwrist -2.83
rhand -21.1583 -12.4372
rfingers 7.12502
rthumb 5.22154 -42.3528
lclavicle -4.05521e-014 -1.86858e-014
lhumerus -24.7788 -0.797009 81.7998
lradius 37.6486
lwrist 21.6885
lhand -20.6795 15.6589
lfingers 7.12502
lthumb 5.68382 45.5627
rfemur -63.7325 4.96162 14.1797
rtibia 43.8933
rfoot 20.9935 -16.8352
rtoes 13.3052
lfemur -41.8296 12.1967 -26.2984
ltibia 67.9103
lfoot 3.43329 -8.33868
ltoes -24.2249
638
root 8.11368 16.2566 -5.25074 -53.8462 -87.928 68.0302
lowerback 34.3667 -1.59642 1.5452
upperback 9.78241 -2.74623 -1.95689
thorax -6.7999 -1.68836 -1.84247
lowerneck 1.42695 1.46651 3.47254
upperneck -23.8923 1.69165 0.169586
head -7.53399 0.139772 -0.602971
rclavicle 6.36111e-015 -1.98785e-015
rhumerus -28.7705 1.41397 -89.9216
rradius 49.7165
rwrist -2.84882
rhand -21.1924 -12.4339
rfingers 7.12502
rthumb 5.18855 -42.3504
lclavicle 6.36111e-015 -1.98785e-015
lhumerus -24.676 -0.944172 81.8371
lradius 37.7336
lwrist 21.7056
lhand -20.6519 15.6943
lfingers 7.12502
lthumb 5.7104 45.5974
rfemur -63.814 5.04212 13.7452
rtibia 42.7153
rfoot 21.9784 -17.8414
rtoes 14.191
lfemur -42.5323 12.3852 -26.6329
ltibia 67.8302
lfoot 3.24419 -8.29237
ltoes -24.0382
639
root 8.27376 16.2597 -5.23719 -55.4642 -87.9329 69.7518
lowerback 34.4759 -1.52792 1.50512
upperback 9.77379 -2.67627 -1.96132
thorax -6.84485 -1.65615 -1.84785
lowerneck 1.45842 1.4361 3.48464
upperneck -23.9293 1.65474 0.182276
head -7.5527 0.118721 -0.598655
rclavicle -1.98785e-015 8.15017e-015
rhumerus -28.7179 1.35559 -89.8968
rradius 49.7577
rwrist -2.86071
rhand -21.2228 -12.432
rfingers 7.12502
rthumb 5.15922 -42.3492
lclavicle -1.98785e-015 8.15017e-015
lhumerus -24.5888 -1.07663 81.8759
lradius 37.8136
lwrist 21.7208
lhand -20.6256 15.7211
lfingers 7.12502
lthumb 5.73588 45.6235
rfemur -63.9096 5.06775 13.3784
rtibia 41.6805
rfoot 22.8754 -18.5636
rtoes 14.634
lfemur -43.2355 12.5911 -26.9623
ltibia 67.7893
lfoot 3.06024 -8.22938
ltoes -23.889
640
root 8.43127 16.2591 -5.22289 -57.622 -87.9569 71.9983
lowerback 34.5716 -1.45447 1.47427
upperback 9.7677 -2.59757 -1.96407
thorax -6.8819 -1.61999 -1.86008
lowerneck 1.48303 1.40905 3.49374
upperneck -23.9473 1.61851 0.175761
head -7.56359 0.100861 -0.600141
rclavicle -6.75868e-015 1.41137e-014
rhumerus -28.6841 1.30779 -89.8639
rradius 49.7954
rwrist -2.86752
rhand -21.2434 -12.4224
rfingers 7.12502
rthumb 5.13936 -42.3401
lclavicle -6.75868e-015 1.41137e-014
lhumerus -24.5264 -1.18394 81.9167
lradius 37.8933
lwrist 21.7394
lhand -20.6143 15.7349
lfingers 7.12502
lthumb 5.74673 45.637
rfemur -64.0342 5.03513 13.1068
rtibia 40.8631
rfoot 23.5579 -18.9024
rtoes 14.5111
lfemur -43.9342 12.8131 -27.2834
ltibia 67.7861
lfoot 2.86263 -8.16373
ltoes -23.7768
